<svg xmlns="http://www.w3.org/2000/svg" width="1440" height="800"><path d="M713,352L723,455L792,448Z" fill="rgb(242,189,28)" stroke="rgb(242,189,28)" stroke-width="1.51"/><path d="M792,448L832,352L713,352Z" fill="rgb(243,187,38)" stroke="rgb(243,187,38)" stroke-width="1.51"/><path d="M723,455L788,533L792,448Z" fill="rgb(243,182,43)" stroke="rgb(243,182,43)" stroke-width="1.51"/><path d="M792,448L893,359L832,352Z" fill="rgb(243,184,43)" stroke="rgb(243,184,43)" stroke-width="1.51"/><path d="M832,352L807,269L713,352Z" fill="rgb(245,182,63)" stroke="rgb(245,182,63)" stroke-width="1.51"/><path d="M723,455L732,543L788,533Z" fill="rgb(244,180,47)" stroke="rgb(244,180,47)" stroke-width="1.51"/><path d="M922,457L893,359L792,448Z" fill="rgb(244,182,43)" stroke="rgb(244,182,43)" stroke-width="1.51"/><path d="M832,352L893,359L807,269Z" fill="rgb(246,179,67)" stroke="rgb(246,179,67)" stroke-width="1.51"/><path d="M713,352L605,459L723,455Z" fill="rgb(243,187,39)" stroke="rgb(243,187,39)" stroke-width="1.51"/><path d="M723,455L605,459L732,543Z" fill="rgb(244,182,48)" stroke="rgb(244,182,48)" stroke-width="1.51"/><path d="M807,269L743,241L713,352Z" fill="rgb(246,181,74)" stroke="rgb(246,181,74)" stroke-width="1.51"/><path d="M713,352L599,346L605,459Z" fill="rgb(244,187,52)" stroke="rgb(244,187,52)" stroke-width="1.51"/><path d="M613,235L599,346L713,352Z" fill="rgb(247,180,78)" stroke="rgb(247,180,78)" stroke-width="1.51"/><path d="M887,554L922,457L792,448Z" fill="rgb(245,177,54)" stroke="rgb(245,177,54)" stroke-width="1.51"/><path d="M788,533L887,554L792,448Z" fill="rgb(245,176,54)" stroke="rgb(245,176,54)" stroke-width="1.51"/><path d="M836,646L887,554L788,533Z" fill="rgb(246,170,63)" stroke="rgb(246,170,63)" stroke-width="1.51"/><path d="M743,241L613,235L713,352Z" fill="rgb(246,180,80)" stroke="rgb(246,180,80)" stroke-width="1.51"/><path d="M816,140L710,189L743,241Z" fill="rgb(249,172,102)" stroke="rgb(249,172,102)" stroke-width="1.51"/><path d="M710,189L613,235L743,241Z" fill="rgb(248,175,96)" stroke="rgb(248,175,96)" stroke-width="1.51"/><path d="M732,543L734,622L788,533Z" fill="rgb(245,175,55)" stroke="rgb(245,175,55)" stroke-width="1.51"/><path d="M650,624L734,622L732,543Z" fill="rgb(245,173,60)" stroke="rgb(245,173,60)" stroke-width="1.51"/><path d="M893,359L936,272L807,269Z" fill="rgb(247,175,77)" stroke="rgb(247,175,77)" stroke-width="1.51"/><path d="M807,269L816,140L743,241Z" fill="rgb(248,172,96)" stroke="rgb(248,172,96)" stroke-width="1.51"/><path d="M1007,348L936,272L893,359Z" fill="rgb(247,174,73)" stroke="rgb(247,174,73)" stroke-width="1.51"/><path d="M605,459L594,569L732,543Z" fill="rgb(246,177,63)" stroke="rgb(246,177,63)" stroke-width="1.51"/><path d="M531,548L594,569L605,459Z" fill="rgb(247,173,75)" stroke="rgb(247,173,75)" stroke-width="1.51"/><path d="M710,189L634,191L613,235Z" fill="rgb(249,172,106)" stroke="rgb(249,172,106)" stroke-width="1.51"/><path d="M594,569L650,624L732,543Z" fill="rgb(246,173,67)" stroke="rgb(246,173,67)" stroke-width="1.51"/><path d="M599,346L513,459L605,459Z" fill="rgb(245,183,64)" stroke="rgb(245,183,64)" stroke-width="1.51"/><path d="M517,324L513,459L599,346Z" fill="rgb(246,181,74)" stroke="rgb(246,181,74)" stroke-width="1.51"/><path d="M533,251L517,324L599,346Z" fill="rgb(248,176,94)" stroke="rgb(248,176,94)" stroke-width="1.51"/><path d="M533,251L599,346L613,235Z" fill="rgb(248,175,97)" stroke="rgb(248,175,97)" stroke-width="1.51"/><path d="M695,733L836,646L734,622Z" fill="rgb(247,166,69)" stroke="rgb(247,166,69)" stroke-width="1.51"/><path d="M734,622L836,646L788,533Z" fill="rgb(246,170,62)" stroke="rgb(246,170,62)" stroke-width="1.51"/><path d="M922,457L1007,348L893,359Z" fill="rgb(244,179,51)" stroke="rgb(244,179,51)" stroke-width="1.51"/><path d="M1010,459L1007,348L922,457Z" fill="rgb(245,176,53)" stroke="rgb(245,176,53)" stroke-width="1.51"/><path d="M1010,459L922,457L1023,540Z" fill="rgb(246,171,62)" stroke="rgb(246,171,62)" stroke-width="1.51"/><path d="M907,151L816,140L807,269Z" fill="rgb(250,167,107)" stroke="rgb(250,167,107)" stroke-width="1.51"/><path d="M1007,348L985,282L936,272Z" fill="rgb(248,170,83)" stroke="rgb(248,170,83)" stroke-width="1.51"/><path d="M1023,540L922,457L887,554Z" fill="rgb(246,170,63)" stroke="rgb(246,170,63)" stroke-width="1.51"/><path d="M558,167L533,251L613,235Z" fill="rgb(249,169,114)" stroke="rgb(249,169,114)" stroke-width="1.51"/><path d="M513,459L531,548L605,459Z" fill="rgb(247,175,76)" stroke="rgb(247,175,76)" stroke-width="1.51"/><path d="M594,569L538,637L650,624Z" fill="rgb(248,167,81)" stroke="rgb(248,167,81)" stroke-width="1.51"/><path d="M907,151L807,269L936,272Z" fill="rgb(249,169,97)" stroke="rgb(249,169,97)" stroke-width="1.51"/><path d="M543,96L558,167L634,191Z" fill="rgb(251,164,130)" stroke="rgb(251,164,130)" stroke-width="1.51"/><path d="M836,646L906,636L887,554Z" fill="rgb(247,165,69)" stroke="rgb(247,165,69)" stroke-width="1.51"/><path d="M513,459L428,563L531,548Z" fill="rgb(248,169,89)" stroke="rgb(248,169,89)" stroke-width="1.51"/><path d="M517,324L465,446L513,459Z" fill="rgb(246,180,75)" stroke="rgb(246,180,75)" stroke-width="1.51"/><path d="M418,375L465,446L517,324Z" fill="rgb(247,178,85)" stroke="rgb(247,178,85)" stroke-width="1.51"/><path d="M974,184L907,151L936,272Z" fill="rgb(250,164,107)" stroke="rgb(250,164,107)" stroke-width="1.51"/><path d="M634,191L558,167L613,235Z" fill="rgb(250,169,115)" stroke="rgb(250,169,115)" stroke-width="1.51"/><path d="M417,244L418,375L517,324Z" fill="rgb(249,172,107)" stroke="rgb(249,172,107)" stroke-width="1.51"/><path d="M690,58L634,191L710,189Z" fill="rgb(250,168,117)" stroke="rgb(250,168,117)" stroke-width="1.51"/><path d="M906,636L1023,540L887,554Z" fill="rgb(247,164,69)" stroke="rgb(247,164,69)" stroke-width="1.51"/><path d="M1010,459L1082,339L1007,348Z" fill="rgb(246,174,61)" stroke="rgb(246,174,61)" stroke-width="1.51"/><path d="M985,282L974,184L936,272Z" fill="rgb(249,166,98)" stroke="rgb(249,166,98)" stroke-width="1.51"/><path d="M1078,242L974,184L985,282Z" fill="rgb(249,163,102)" stroke="rgb(249,163,102)" stroke-width="1.51"/><path d="M816,140L805,92L710,189Z" fill="rgb(250,167,115)" stroke="rgb(250,167,115)" stroke-width="1.51"/><path d="M907,151L805,92L816,140Z" fill="rgb(251,162,122)" stroke="rgb(251,162,122)" stroke-width="1.51"/><path d="M926,80L805,92L907,151Z" fill="rgb(251,158,128)" stroke="rgb(251,158,128)" stroke-width="1.51"/><path d="M650,624L695,733L734,622Z" fill="rgb(247,167,70)" stroke="rgb(247,167,70)" stroke-width="1.51"/><path d="M531,548L538,637L594,569Z" fill="rgb(248,167,85)" stroke="rgb(248,167,85)" stroke-width="1.51"/><path d="M428,563L538,637L531,548Z" fill="rgb(249,164,93)" stroke="rgb(249,164,93)" stroke-width="1.51"/><path d="M417,244L517,324L533,251Z" fill="rgb(250,170,112)" stroke="rgb(250,170,112)" stroke-width="1.51"/><path d="M465,446L428,563L513,459Z" fill="rgb(248,171,89)" stroke="rgb(248,171,89)" stroke-width="1.51"/><path d="M1007,348L1082,339L985,282Z" fill="rgb(248,170,79)" stroke="rgb(248,170,79)" stroke-width="1.51"/><path d="M1119,474L1082,339L1010,459Z" fill="rgb(245,172,60)" stroke="rgb(245,172,60)" stroke-width="1.51"/><path d="M594,705L695,733L650,624Z" fill="rgb(248,162,81)" stroke="rgb(248,162,81)" stroke-width="1.51"/><path d="M836,646L846,743L906,636Z" fill="rgb(247,159,76)" stroke="rgb(247,159,76)" stroke-width="1.51"/><path d="M538,637L594,705L650,624Z" fill="rgb(248,162,85)" stroke="rgb(248,162,85)" stroke-width="1.51"/><path d="M805,92L690,58L710,189Z" fill="rgb(250,167,120)" stroke="rgb(250,167,120)" stroke-width="1.51"/><path d="M695,733L846,743L836,646Z" fill="rgb(248,160,75)" stroke="rgb(248,160,75)" stroke-width="1.51"/><path d="M906,636L1034,642L1023,540Z" fill="rgb(248,160,75)" stroke="rgb(248,160,75)" stroke-width="1.51"/><path d="M690,58L656,52L634,191Z" fill="rgb(251,163,131)" stroke="rgb(251,163,131)" stroke-width="1.51"/><path d="M1082,339L1078,242L985,282Z" fill="rgb(249,166,91)" stroke="rgb(249,166,91)" stroke-width="1.51"/><path d="M356,536L428,563L465,446Z" fill="rgb(249,167,99)" stroke="rgb(249,167,99)" stroke-width="1.51"/><path d="M538,637L508,729L594,705Z" fill="rgb(250,156,96)" stroke="rgb(250,156,96)" stroke-width="1.51"/><path d="M1023,46L926,80L974,184Z" fill="rgb(252,153,133)" stroke="rgb(252,153,133)" stroke-width="1.51"/><path d="M974,184L926,80L907,151Z" fill="rgb(251,158,123)" stroke="rgb(251,158,123)" stroke-width="1.51"/><path d="M805,92L703,-9L690,58Z" fill="rgb(251,161,136)" stroke="rgb(251,161,136)" stroke-width="1.51"/><path d="M690,58L703,-9L656,52Z" fill="rgb(252,159,144)" stroke="rgb(252,159,144)" stroke-width="1.51"/><path d="M417,165L417,244L533,251Z" fill="rgb(251,164,129)" stroke="rgb(251,164,129)" stroke-width="1.51"/><path d="M656,52L543,96L634,191Z" fill="rgb(251,162,134)" stroke="rgb(251,162,134)" stroke-width="1.51"/><path d="M417,165L533,251L558,167Z" fill="rgb(251,164,129)" stroke="rgb(251,164,129)" stroke-width="1.51"/><path d="M1023,540L1119,474L1010,459Z" fill="rgb(247,167,67)" stroke="rgb(247,167,67)" stroke-width="1.51"/><path d="M908,746L1034,642L906,636Z" fill="rgb(248,155,81)" stroke="rgb(248,155,81)" stroke-width="1.51"/><path d="M1115,565L1119,474L1023,540Z" fill="rgb(248,162,73)" stroke="rgb(248,162,73)" stroke-width="1.51"/><path d="M1082,339L1195,285L1078,242Z" fill="rgb(249,162,93)" stroke="rgb(249,162,93)" stroke-width="1.51"/><path d="M846,743L908,746L906,636Z" fill="rgb(249,155,81)" stroke="rgb(249,155,81)" stroke-width="1.51"/><path d="M418,375L366,426L465,446Z" fill="rgb(248,176,90)" stroke="rgb(248,176,90)" stroke-width="1.51"/><path d="M313,335L366,426L418,375Z" fill="rgb(249,173,102)" stroke="rgb(249,173,102)" stroke-width="1.51"/><path d="M1034,642L1115,565L1023,540Z" fill="rgb(248,158,78)" stroke="rgb(248,158,78)" stroke-width="1.51"/><path d="M417,244L313,335L418,375Z" fill="rgb(250,169,115)" stroke="rgb(250,169,115)" stroke-width="1.51"/><path d="M543,96L417,165L558,167Z" fill="rgb(252,159,141)" stroke="rgb(252,159,141)" stroke-width="1.51"/><path d="M424,663L508,729L538,637Z" fill="rgb(250,155,103)" stroke="rgb(250,155,103)" stroke-width="1.51"/><path d="M607,845L722,832L695,733Z" fill="rgb(249,153,87)" stroke="rgb(249,153,87)" stroke-width="1.51"/><path d="M695,733L722,832L846,743Z" fill="rgb(249,156,79)" stroke="rgb(249,156,79)" stroke-width="1.51"/><path d="M846,743L896,857L908,746Z" fill="rgb(250,148,87)" stroke="rgb(250,148,87)" stroke-width="1.51"/><path d="M656,52L602,-8L543,96Z" fill="rgb(252,156,152)" stroke="rgb(252,156,152)" stroke-width="1.51"/><path d="M543,96L465,72L417,165Z" fill="rgb(252,155,153)" stroke="rgb(252,155,153)" stroke-width="1.51"/><path d="M813,-13L703,-9L805,92Z" fill="rgb(252,157,144)" stroke="rgb(252,157,144)" stroke-width="1.51"/><path d="M926,80L813,-13L805,92Z" fill="rgb(252,155,140)" stroke="rgb(252,155,140)" stroke-width="1.51"/><path d="M428,563L424,663L538,637Z" fill="rgb(250,159,102)" stroke="rgb(250,159,102)" stroke-width="1.51"/><path d="M366,426L356,536L465,446Z" fill="rgb(249,170,98)" stroke="rgb(249,170,98)" stroke-width="1.51"/><path d="M318,618L424,663L428,563Z" fill="rgb(251,156,112)" stroke="rgb(251,156,112)" stroke-width="1.51"/><path d="M1034,642L1111,639L1115,565Z" fill="rgb(249,153,82)" stroke="rgb(249,153,82)" stroke-width="1.51"/><path d="M1078,739L1111,639L1034,642Z" fill="rgb(249,149,87)" stroke="rgb(249,149,87)" stroke-width="1.51"/><path d="M607,845L695,733L594,705Z" fill="rgb(250,154,90)" stroke="rgb(250,154,90)" stroke-width="1.51"/><path d="M703,-9L602,-8L656,52Z" fill="rgb(252,155,153)" stroke="rgb(252,155,153)" stroke-width="1.51"/><path d="M552,-9L602,-8L536,-112Z" fill="rgb(252,150,167)" stroke="rgb(252,150,167)" stroke-width="1.51"/><path d="M552,-9L465,72L543,96Z" fill="rgb(252,152,161)" stroke="rgb(252,152,161)" stroke-width="1.51"/><path d="M1119,474L1189,372L1082,339Z" fill="rgb(246,171,63)" stroke="rgb(246,171,63)" stroke-width="1.51"/><path d="M1224,522L1186,451L1119,474Z" fill="rgb(248,161,74)" stroke="rgb(248,161,74)" stroke-width="1.51"/><path d="M1224,522L1119,474L1115,565Z" fill="rgb(248,159,76)" stroke="rgb(248,159,76)" stroke-width="1.51"/><path d="M1186,451L1189,372L1119,474Z" fill="rgb(247,166,68)" stroke="rgb(247,166,68)" stroke-width="1.51"/><path d="M908,746L1011,760L1034,642Z" fill="rgb(249,149,86)" stroke="rgb(249,149,86)" stroke-width="1.51"/><path d="M896,857L1011,760L908,746Z" fill="rgb(250,145,90)" stroke="rgb(250,145,90)" stroke-width="1.51"/><path d="M335,230L313,335L417,244Z" fill="rgb(251,164,131)" stroke="rgb(251,164,131)" stroke-width="1.51"/><path d="M366,426L250,420L356,536Z" fill="rgb(250,167,108)" stroke="rgb(250,167,108)" stroke-width="1.51"/><path d="M335,230L417,244L417,165Z" fill="rgb(252,160,140)" stroke="rgb(252,160,140)" stroke-width="1.51"/><path d="M926,80L907,-45L813,-13Z" fill="rgb(252,149,152)" stroke="rgb(252,149,152)" stroke-width="1.51"/><path d="M1084,85L1023,46L974,184Z" fill="rgb(252,150,135)" stroke="rgb(252,150,135)" stroke-width="1.51"/><path d="M1084,85L974,184L1129,138Z" fill="rgb(252,151,129)" stroke="rgb(252,151,129)" stroke-width="1.51"/><path d="M722,832L829,843L846,743Z" fill="rgb(249,151,84)" stroke="rgb(249,151,84)" stroke-width="1.51"/><path d="M345,137L335,230L417,165Z" fill="rgb(252,156,152)" stroke="rgb(252,156,152)" stroke-width="1.51"/><path d="M690,-103L602,-8L703,-9Z" fill="rgb(252,155,154)" stroke="rgb(252,155,154)" stroke-width="1.51"/><path d="M602,-8L552,-9L543,96Z" fill="rgb(252,152,161)" stroke="rgb(252,152,161)" stroke-width="1.51"/><path d="M1189,372L1195,285L1082,339Z" fill="rgb(248,164,84)" stroke="rgb(248,164,84)" stroke-width="1.51"/><path d="M1260,375L1195,285L1189,372Z" fill="rgb(248,162,84)" stroke="rgb(248,162,84)" stroke-width="1.51"/><path d="M1129,138L974,184L1078,242Z" fill="rgb(251,156,117)" stroke="rgb(251,156,117)" stroke-width="1.51"/><path d="M1206,157L1129,138L1078,242Z" fill="rgb(251,151,122)" stroke="rgb(251,151,122)" stroke-width="1.51"/><path d="M508,729L607,845L594,705Z" fill="rgb(250,151,99)" stroke="rgb(250,151,99)" stroke-width="1.51"/><path d="M424,663L443,745L508,729Z" fill="rgb(251,150,110)" stroke="rgb(251,150,110)" stroke-width="1.51"/><path d="M345,708L443,745L424,663Z" fill="rgb(251,148,117)" stroke="rgb(251,148,117)" stroke-width="1.51"/><path d="M822,931L881,891L829,843Z" fill="rgb(249,148,87)" stroke="rgb(249,148,87)" stroke-width="1.51"/><path d="M513,858L607,845L508,729Z" fill="rgb(251,146,106)" stroke="rgb(251,146,106)" stroke-width="1.51"/><path d="M1011,760L1078,739L1034,642Z" fill="rgb(250,146,89)" stroke="rgb(250,146,89)" stroke-width="1.51"/><path d="M1111,639L1173,642L1115,565Z" fill="rgb(249,151,85)" stroke="rgb(249,151,85)" stroke-width="1.51"/><path d="M1105,829L1078,739L1011,760Z" fill="rgb(250,139,95)" stroke="rgb(250,139,95)" stroke-width="1.51"/><path d="M1020,-10L907,-45L926,80Z" fill="rgb(252,146,155)" stroke="rgb(252,146,155)" stroke-width="1.51"/><path d="M813,-13L690,-103L703,-9Z" fill="rgb(252,157,148)" stroke="rgb(252,157,148)" stroke-width="1.51"/><path d="M1020,-10L926,80L1023,46Z" fill="rgb(252,146,149)" stroke="rgb(252,146,149)" stroke-width="1.51"/><path d="M829,843L896,857L846,743Z" fill="rgb(249,148,87)" stroke="rgb(249,148,87)" stroke-width="1.51"/><path d="M881,891L896,857L829,843Z" fill="rgb(250,147,88)" stroke="rgb(250,147,88)" stroke-width="1.51"/><path d="M250,356L250,420L313,335Z" fill="rgb(250,168,118)" stroke="rgb(250,168,118)" stroke-width="1.51"/><path d="M465,72L345,137L417,165Z" fill="rgb(252,153,158)" stroke="rgb(252,153,158)" stroke-width="1.51"/><path d="M310,89L345,137L465,72Z" fill="rgb(252,149,169)" stroke="rgb(252,149,169)" stroke-width="1.51"/><path d="M1078,739L1173,642L1111,639Z" fill="rgb(250,146,90)" stroke="rgb(250,146,90)" stroke-width="1.51"/><path d="M356,536L318,618L428,563Z" fill="rgb(251,159,111)" stroke="rgb(251,159,111)" stroke-width="1.51"/><path d="M215,542L318,618L356,536Z" fill="rgb(251,156,120)" stroke="rgb(251,156,120)" stroke-width="1.51"/><path d="M1186,451L1260,375L1189,372Z" fill="rgb(246,167,67)" stroke="rgb(246,167,67)" stroke-width="1.51"/><path d="M1173,642L1224,522L1115,565Z" fill="rgb(249,152,83)" stroke="rgb(249,152,83)" stroke-width="1.51"/><path d="M1094,-10L1023,46L1084,85Z" fill="rgb(252,142,152)" stroke="rgb(252,142,152)" stroke-width="1.51"/><path d="M1094,-10L1020,-10L1023,46Z" fill="rgb(253,141,158)" stroke="rgb(253,141,158)" stroke-width="1.51"/><path d="M313,335L250,420L366,426Z" fill="rgb(249,172,106)" stroke="rgb(249,172,106)" stroke-width="1.51"/><path d="M250,356L313,335L217,226Z" fill="rgb(251,162,135)" stroke="rgb(251,162,135)" stroke-width="1.51"/><path d="M217,226L313,335L335,230Z" fill="rgb(252,160,142)" stroke="rgb(252,160,142)" stroke-width="1.51"/><path d="M795,-151L690,-103L813,-13Z" fill="rgb(252,155,149)" stroke="rgb(252,155,149)" stroke-width="1.51"/><path d="M896,857L1018,859L1011,760Z" fill="rgb(250,141,93)" stroke="rgb(250,141,93)" stroke-width="1.51"/><path d="M822,931L829,843L722,832Z" fill="rgb(249,151,84)" stroke="rgb(249,151,84)" stroke-width="1.51"/><path d="M1195,285L1206,157L1078,242Z" fill="rgb(251,154,112)" stroke="rgb(251,154,112)" stroke-width="1.51"/><path d="M1267,474L1260,375L1186,451Z" fill="rgb(247,162,72)" stroke="rgb(247,162,72)" stroke-width="1.51"/><path d="M318,618L345,708L424,663Z" fill="rgb(252,150,119)" stroke="rgb(252,150,119)" stroke-width="1.51"/><path d="M443,745L513,858L508,729Z" fill="rgb(252,146,112)" stroke="rgb(252,146,112)" stroke-width="1.51"/><path d="M249,701L345,708L318,618Z" fill="rgb(252,146,128)" stroke="rgb(252,146,128)" stroke-width="1.51"/><path d="M1190,41L1094,-10L1084,85Z" fill="rgb(253,139,154)" stroke="rgb(253,139,154)" stroke-width="1.51"/><path d="M1261,226L1206,157L1195,285Z" fill="rgb(251,151,115)" stroke="rgb(251,151,115)" stroke-width="1.51"/><path d="M432,837L513,858L443,745Z" fill="rgb(252,142,117)" stroke="rgb(252,142,117)" stroke-width="1.51"/><path d="M607,845L715,930L722,832Z" fill="rgb(249,153,86)" stroke="rgb(249,153,86)" stroke-width="1.51"/><path d="M1224,522L1267,474L1186,451Z" fill="rgb(248,159,77)" stroke="rgb(248,159,77)" stroke-width="1.51"/><path d="M1320,560L1267,474L1224,522Z" fill="rgb(249,153,82)" stroke="rgb(249,153,82)" stroke-width="1.51"/><path d="M513,858L556,891L607,845Z" fill="rgb(251,147,104)" stroke="rgb(251,147,104)" stroke-width="1.51"/><path d="M1078,739L1209,732L1173,642Z" fill="rgb(251,141,94)" stroke="rgb(251,141,94)" stroke-width="1.51"/><path d="M978,921L1018,859L896,857Z" fill="rgb(250,142,92)" stroke="rgb(250,142,92)" stroke-width="1.51"/><path d="M608,936L715,930L607,845Z" fill="rgb(250,151,92)" stroke="rgb(250,151,92)" stroke-width="1.51"/><path d="M881,891L978,921L896,857Z" fill="rgb(250,145,90)" stroke="rgb(250,145,90)" stroke-width="1.51"/><path d="M907,-45L795,-151L813,-13Z" fill="rgb(252,151,152)" stroke="rgb(252,151,152)" stroke-width="1.51"/><path d="M913,-153L795,-151L907,-45Z" fill="rgb(252,149,153)" stroke="rgb(252,149,153)" stroke-width="1.51"/><path d="M1190,41L1084,85L1129,138Z" fill="rgb(252,143,144)" stroke="rgb(252,143,144)" stroke-width="1.51"/><path d="M715,930L822,931L722,832Z" fill="rgb(249,153,82)" stroke="rgb(249,153,82)" stroke-width="1.51"/><path d="M1206,157L1190,41L1129,138Z" fill="rgb(252,143,140)" stroke="rgb(252,143,140)" stroke-width="1.51"/><path d="M1260,375L1261,226L1195,285Z" fill="rgb(250,156,98)" stroke="rgb(250,156,98)" stroke-width="1.51"/><path d="M1280,141L1261,226L1388,136Z" fill="rgb(252,141,132)" stroke="rgb(252,141,132)" stroke-width="1.51"/><path d="M552,-9L448,-44L465,72Z" fill="rgb(252,147,175)" stroke="rgb(252,147,175)" stroke-width="1.51"/><path d="M536,-112L448,-44L552,-9Z" fill="rgb(252,147,174)" stroke="rgb(252,147,174)" stroke-width="1.51"/><path d="M345,137L269,159L335,230Z" fill="rgb(252,153,158)" stroke="rgb(252,153,158)" stroke-width="1.51"/><path d="M310,89L269,159L345,137Z" fill="rgb(252,149,170)" stroke="rgb(252,149,170)" stroke-width="1.51"/><path d="M314,-32L310,89L465,72Z" fill="rgb(252,144,183)" stroke="rgb(252,144,183)" stroke-width="1.51"/><path d="M365,823L432,837L443,745Z" fill="rgb(252,139,123)" stroke="rgb(252,139,123)" stroke-width="1.51"/><path d="M513,858L437,901L556,891Z" fill="rgb(251,144,111)" stroke="rgb(251,144,111)" stroke-width="1.51"/><path d="M1007,-109L907,-45L1020,-10Z" fill="rgb(253,144,158)" stroke="rgb(253,144,158)" stroke-width="1.51"/><path d="M595,-145L536,-112L602,-8Z" fill="rgb(252,150,165)" stroke="rgb(252,150,165)" stroke-width="1.51"/><path d="M715,930L608,936L822,931Z" fill="rgb(248,155,81)" stroke="rgb(248,155,81)" stroke-width="1.51"/><path d="M556,891L608,936L607,845Z" fill="rgb(251,148,99)" stroke="rgb(251,148,99)" stroke-width="1.51"/><path d="M437,901L608,936L556,891Z" fill="rgb(251,146,107)" stroke="rgb(251,146,107)" stroke-width="1.51"/><path d="M1018,859L1105,829L1011,760Z" fill="rgb(251,138,96)" stroke="rgb(251,138,96)" stroke-width="1.51"/><path d="M1319,644L1320,560L1224,522Z" fill="rgb(250,146,89)" stroke="rgb(250,146,89)" stroke-width="1.51"/><path d="M1070,949L1105,829L1018,859Z" fill="rgb(251,137,97)" stroke="rgb(251,137,97)" stroke-width="1.51"/><path d="M250,420L215,542L356,536Z" fill="rgb(251,161,118)" stroke="rgb(251,161,118)" stroke-width="1.51"/><path d="M345,708L365,823L443,745Z" fill="rgb(252,142,124)" stroke="rgb(252,142,124)" stroke-width="1.51"/><path d="M181,530L215,542L250,420Z" fill="rgb(251,159,126)" stroke="rgb(251,159,126)" stroke-width="1.51"/><path d="M181,530L250,420L156,459Z" fill="rgb(251,161,126)" stroke="rgb(251,161,126)" stroke-width="1.51"/><path d="M595,-145L602,-8L690,-103Z" fill="rgb(252,153,159)" stroke="rgb(252,153,159)" stroke-width="1.51"/><path d="M269,159L217,226L335,230Z" fill="rgb(252,154,157)" stroke="rgb(252,154,157)" stroke-width="1.51"/><path d="M174,252L217,226L142,165Z" fill="rgb(252,150,167)" stroke="rgb(252,150,167)" stroke-width="1.51"/><path d="M1166,819L1209,732L1078,739Z" fill="rgb(251,135,98)" stroke="rgb(251,135,98)" stroke-width="1.51"/><path d="M1280,141L1190,41L1206,157Z" fill="rgb(252,140,141)" stroke="rgb(252,140,141)" stroke-width="1.51"/><path d="M215,542L241,646L318,618Z" fill="rgb(252,151,128)" stroke="rgb(252,151,128)" stroke-width="1.51"/><path d="M795,-151L595,-145L690,-103Z" fill="rgb(252,156,150)" stroke="rgb(252,156,150)" stroke-width="1.51"/><path d="M822,931L978,921L881,891Z" fill="rgb(250,146,89)" stroke="rgb(250,146,89)" stroke-width="1.51"/><path d="M1103,-99L1007,-109L1020,-10Z" fill="rgb(253,140,160)" stroke="rgb(253,140,160)" stroke-width="1.51"/><path d="M1103,-99L1020,-10L1094,-10Z" fill="rgb(252,138,161)" stroke="rgb(252,138,161)" stroke-width="1.51"/><path d="M432,837L437,901L513,858Z" fill="rgb(252,142,117)" stroke="rgb(252,142,117)" stroke-width="1.51"/><path d="M273,811L365,823L345,708Z" fill="rgb(253,136,133)" stroke="rgb(253,136,133)" stroke-width="1.51"/><path d="M1007,-109L913,-153L907,-45Z" fill="rgb(252,145,156)" stroke="rgb(252,145,156)" stroke-width="1.51"/><path d="M215,542L140,634L241,646Z" fill="rgb(252,147,137)" stroke="rgb(252,147,137)" stroke-width="1.51"/><path d="M156,459L250,420L153,359Z" fill="rgb(251,165,123)" stroke="rgb(251,165,123)" stroke-width="1.51"/><path d="M241,646L249,701L318,618Z" fill="rgb(252,146,131)" stroke="rgb(252,146,131)" stroke-width="1.51"/><path d="M140,634L249,701L241,646Z" fill="rgb(252,142,139)" stroke="rgb(252,142,139)" stroke-width="1.51"/><path d="M1376,360L1261,226L1260,375Z" fill="rgb(250,155,95)" stroke="rgb(250,155,95)" stroke-width="1.51"/><path d="M1261,226L1280,141L1206,157Z" fill="rgb(252,145,128)" stroke="rgb(252,145,128)" stroke-width="1.51"/><path d="M1163,897L1166,819L1105,829Z" fill="rgb(251,132,101)" stroke="rgb(251,132,101)" stroke-width="1.51"/><path d="M1105,829L1166,819L1078,739Z" fill="rgb(251,134,99)" stroke="rgb(251,134,99)" stroke-width="1.51"/><path d="M1393,417L1376,360L1260,375Z" fill="rgb(248,158,80)" stroke="rgb(248,158,80)" stroke-width="1.51"/><path d="M1319,644L1224,522L1173,642Z" fill="rgb(250,146,89)" stroke="rgb(250,146,89)" stroke-width="1.51"/><path d="M1319,644L1173,642L1209,732Z" fill="rgb(250,140,95)" stroke="rgb(250,140,95)" stroke-width="1.51"/><path d="M365,823L437,901L432,837Z" fill="rgb(252,139,123)" stroke="rgb(252,139,123)" stroke-width="1.51"/><path d="M340,935L437,901L365,823Z" fill="rgb(253,138,127)" stroke="rgb(253,138,127)" stroke-width="1.51"/><path d="M217,226L174,252L250,356Z" fill="rgb(251,157,148)" stroke="rgb(251,157,148)" stroke-width="1.51"/><path d="M142,165L217,226L269,159Z" fill="rgb(252,149,171)" stroke="rgb(252,149,171)" stroke-width="1.51"/><path d="M1304,54L1186,-11L1190,41Z" fill="rgb(252,132,161)" stroke="rgb(252,132,161)" stroke-width="1.51"/><path d="M1190,41L1186,-11L1094,-10Z" fill="rgb(253,134,163)" stroke="rgb(253,134,163)" stroke-width="1.51"/><path d="M153,359L250,420L250,356Z" fill="rgb(250,166,123)" stroke="rgb(250,166,123)" stroke-width="1.51"/><path d="M174,252L153,359L250,356Z" fill="rgb(251,160,140)" stroke="rgb(251,160,140)" stroke-width="1.51"/><path d="M536,-112L453,-128L448,-44Z" fill="rgb(252,146,178)" stroke="rgb(252,146,178)" stroke-width="1.51"/><path d="M314,-32L258,47L310,89Z" fill="rgb(251,139,194)" stroke="rgb(251,139,194)" stroke-width="1.51"/><path d="M310,89L258,47L269,159Z" fill="rgb(252,144,181)" stroke="rgb(252,144,181)" stroke-width="1.51"/><path d="M595,-145L453,-128L536,-112Z" fill="rgb(252,148,172)" stroke="rgb(252,148,172)" stroke-width="1.51"/><path d="M314,-32L465,72L448,-44Z" fill="rgb(251,142,187)" stroke="rgb(251,142,187)" stroke-width="1.51"/><path d="M1007,-109L1214,-131L913,-153Z" fill="rgb(253,140,160)" stroke="rgb(253,140,160)" stroke-width="1.51"/><path d="M1186,-11L1103,-99L1094,-10Z" fill="rgb(253,135,164)" stroke="rgb(253,135,164)" stroke-width="1.51"/><path d="M315,-134L314,-32L448,-44Z" fill="rgb(251,139,193)" stroke="rgb(251,139,193)" stroke-width="1.51"/><path d="M1317,727L1319,644L1209,732Z" fill="rgb(251,134,99)" stroke="rgb(251,134,99)" stroke-width="1.51"/><path d="M1393,417L1260,375L1267,474Z" fill="rgb(248,160,75)" stroke="rgb(248,160,75)" stroke-width="1.51"/><path d="M1393,417L1267,474L1320,560Z" fill="rgb(249,153,82)" stroke="rgb(249,153,82)" stroke-width="1.51"/><path d="M249,701L273,811L345,708Z" fill="rgb(252,138,135)" stroke="rgb(252,138,135)" stroke-width="1.51"/><path d="M181,829L273,811L249,701Z" fill="rgb(253,132,145)" stroke="rgb(253,132,145)" stroke-width="1.51"/><path d="M140,634L215,542L181,530Z" fill="rgb(252,150,137)" stroke="rgb(252,150,137)" stroke-width="1.51"/><path d="M1290,829L1317,727L1209,732Z" fill="rgb(252,128,104)" stroke="rgb(252,128,104)" stroke-width="1.51"/><path d="M978,921L1070,949L1018,859Z" fill="rgb(251,139,96)" stroke="rgb(251,139,96)" stroke-width="1.51"/><path d="M822,931L1070,949L978,921Z" fill="rgb(250,142,93)" stroke="rgb(250,142,93)" stroke-width="1.51"/><path d="M608,936L1070,949L822,931Z" fill="rgb(249,149,86)" stroke="rgb(249,149,86)" stroke-width="1.51"/><path d="M1384,560L1393,417L1320,560Z" fill="rgb(250,148,87)" stroke="rgb(250,148,87)" stroke-width="1.51"/><path d="M1070,949L1163,897L1105,829Z" fill="rgb(251,134,100)" stroke="rgb(251,134,100)" stroke-width="1.51"/><path d="M314,-32L275,-36L258,47Z" fill="rgb(250,135,203)" stroke="rgb(250,135,203)" stroke-width="1.51"/><path d="M131,98L142,165L269,159Z" fill="rgb(252,143,184)" stroke="rgb(252,143,184)" stroke-width="1.51"/><path d="M315,-134L275,-36L314,-32Z" fill="rgb(250,136,201)" stroke="rgb(250,136,201)" stroke-width="1.51"/><path d="M1186,-11L1214,-131L1103,-99Z" fill="rgb(253,133,165)" stroke="rgb(253,133,165)" stroke-width="1.51"/><path d="M1280,141L1304,54L1190,41Z" fill="rgb(253,135,151)" stroke="rgb(253,135,151)" stroke-width="1.51"/><path d="M1388,136L1304,54L1280,141Z" fill="rgb(253,134,146)" stroke="rgb(253,134,146)" stroke-width="1.51"/><path d="M1402,285L1261,226L1376,360Z" fill="rgb(250,150,104)" stroke="rgb(250,150,104)" stroke-width="1.51"/><path d="M1394,636L1384,560L1319,644Z" fill="rgb(251,138,96)" stroke="rgb(251,138,96)" stroke-width="1.51"/><path d="M1319,644L1384,560L1320,560Z" fill="rgb(250,142,92)" stroke="rgb(250,142,92)" stroke-width="1.51"/><path d="M1290,829L1209,732L1166,819Z" fill="rgb(251,128,104)" stroke="rgb(251,128,104)" stroke-width="1.51"/><path d="M131,98L269,159L258,47Z" fill="rgb(251,142,188)" stroke="rgb(251,142,188)" stroke-width="1.51"/><path d="M174,252L76,236L153,359Z" fill="rgb(252,154,157)" stroke="rgb(252,154,157)" stroke-width="1.51"/><path d="M140,634L181,530L59,573Z" fill="rgb(253,147,144)" stroke="rgb(253,147,144)" stroke-width="1.51"/><path d="M59,573L156,459L31,448Z" fill="rgb(252,153,143)" stroke="rgb(252,153,143)" stroke-width="1.51"/><path d="M74,612L140,634L59,573Z" fill="rgb(253,142,150)" stroke="rgb(253,142,150)" stroke-width="1.51"/><path d="M1474,229L1402,285L1499,345Z" fill="rgb(251,144,110)" stroke="rgb(251,144,110)" stroke-width="1.51"/><path d="M1499,345L1402,285L1376,360Z" fill="rgb(250,150,98)" stroke="rgb(250,150,98)" stroke-width="1.51"/><path d="M437,901L340,935L608,936Z" fill="rgb(252,142,117)" stroke="rgb(252,142,117)" stroke-width="1.51"/><path d="M608,936L245,953L1070,949Z" fill="rgb(250,151,92)" stroke="rgb(250,151,92)" stroke-width="1.51"/><path d="M273,811L340,935L365,823Z" fill="rgb(253,135,135)" stroke="rgb(253,135,135)" stroke-width="1.51"/><path d="M245,953L340,935L273,811Z" fill="rgb(253,132,140)" stroke="rgb(253,132,140)" stroke-width="1.51"/><path d="M1410,707L1394,636L1319,644Z" fill="rgb(251,133,100)" stroke="rgb(251,133,100)" stroke-width="1.51"/><path d="M1384,560L1458,510L1393,417Z" fill="rgb(250,147,88)" stroke="rgb(250,147,88)" stroke-width="1.51"/><path d="M1317,727L1410,707L1319,644Z" fill="rgb(251,131,102)" stroke="rgb(251,131,102)" stroke-width="1.51"/><path d="M1163,897L1290,829L1166,819Z" fill="rgb(251,128,104)" stroke="rgb(251,128,104)" stroke-width="1.51"/><path d="M1357,813L1290,829L1369,940Z" fill="rgb(252,120,110)" stroke="rgb(252,120,110)" stroke-width="1.51"/><path d="M1402,285L1388,136L1261,226Z" fill="rgb(251,143,122)" stroke="rgb(251,143,122)" stroke-width="1.51"/><path d="M453,-128L315,-134L448,-44Z" fill="rgb(251,142,188)" stroke="rgb(251,142,188)" stroke-width="1.51"/><path d="M146,-32L131,98L258,47Z" fill="rgb(250,133,208)" stroke="rgb(250,133,208)" stroke-width="1.51"/><path d="M595,-145L315,-134L453,-128Z" fill="rgb(251,144,181)" stroke="rgb(251,144,181)" stroke-width="1.51"/><path d="M142,165L76,236L174,252Z" fill="rgb(252,148,172)" stroke="rgb(252,148,172)" stroke-width="1.51"/><path d="M146,-32L258,47L275,-36Z" fill="rgb(250,132,210)" stroke="rgb(250,132,210)" stroke-width="1.51"/><path d="M86,167L76,236L142,165Z" fill="rgb(252,144,183)" stroke="rgb(252,144,183)" stroke-width="1.51"/><path d="M1409,-18L1280,-56L1304,54Z" fill="rgb(252,123,172)" stroke="rgb(252,123,172)" stroke-width="1.51"/><path d="M1304,54L1280,-56L1186,-11Z" fill="rgb(253,128,169)" stroke="rgb(253,128,169)" stroke-width="1.51"/><path d="M1103,-99L1214,-131L1007,-109Z" fill="rgb(253,136,163)" stroke="rgb(253,136,163)" stroke-width="1.51"/><path d="M1280,-56L1214,-131L1186,-11Z" fill="rgb(252,129,168)" stroke="rgb(252,129,168)" stroke-width="1.51"/><path d="M131,98L86,167L142,165Z" fill="rgb(251,140,191)" stroke="rgb(251,140,191)" stroke-width="1.51"/><path d="M140,634L125,731L249,701Z" fill="rgb(253,138,146)" stroke="rgb(253,138,146)" stroke-width="1.51"/><path d="M63,717L125,731L140,634Z" fill="rgb(253,134,154)" stroke="rgb(253,134,154)" stroke-width="1.51"/><path d="M59,573L181,530L156,459Z" fill="rgb(252,152,139)" stroke="rgb(252,152,139)" stroke-width="1.51"/><path d="M1394,636L1458,510L1384,560Z" fill="rgb(251,140,95)" stroke="rgb(251,140,95)" stroke-width="1.51"/><path d="M1506,56L1397,51L1388,136Z" fill="rgb(253,125,157)" stroke="rgb(253,125,157)" stroke-width="1.51"/><path d="M125,731L181,829L249,701Z" fill="rgb(253,132,149)" stroke="rgb(253,132,149)" stroke-width="1.51"/><path d="M31,448L156,459L153,359Z" fill="rgb(251,161,133)" stroke="rgb(251,161,133)" stroke-width="1.51"/><path d="M28,351L153,359L76,236Z" fill="rgb(252,154,155)" stroke="rgb(252,154,155)" stroke-width="1.51"/><path d="M28,351L31,448L153,359Z" fill="rgb(251,160,141)" stroke="rgb(251,160,141)" stroke-width="1.51"/><path d="M1394,636L1488,667L1458,510Z" fill="rgb(251,135,99)" stroke="rgb(251,135,99)" stroke-width="1.51"/><path d="M1357,813L1410,707L1317,727Z" fill="rgb(252,125,107)" stroke="rgb(252,125,107)" stroke-width="1.51"/><path d="M-15,281L28,351L76,236Z" fill="rgb(252,149,169)" stroke="rgb(252,149,169)" stroke-width="1.51"/><path d="M1290,829L1357,813L1317,727Z" fill="rgb(252,122,108)" stroke="rgb(252,122,108)" stroke-width="1.51"/><path d="M1296,945L1290,829L1163,897Z" fill="rgb(252,126,106)" stroke="rgb(252,126,106)" stroke-width="1.51"/><path d="M1280,-56L1317,-111L1214,-131Z" fill="rgb(253,127,169)" stroke="rgb(253,127,169)" stroke-width="1.51"/><path d="M1388,136L1397,51L1304,54Z" fill="rgb(253,129,154)" stroke="rgb(253,129,154)" stroke-width="1.51"/><path d="M1474,229L1388,136L1402,285Z" fill="rgb(252,139,125)" stroke="rgb(252,139,125)" stroke-width="1.51"/><path d="M1499,345L1376,360L1393,417Z" fill="rgb(249,154,87)" stroke="rgb(249,154,87)" stroke-width="1.51"/><path d="M-41,160L-15,281L76,236Z" fill="rgb(251,142,187)" stroke="rgb(251,142,187)" stroke-width="1.51"/><path d="M131,98L70,98L86,167Z" fill="rgb(250,137,200)" stroke="rgb(250,137,200)" stroke-width="1.51"/><path d="M223,-125L146,-32L275,-36Z" fill="rgb(249,132,212)" stroke="rgb(249,132,212)" stroke-width="1.51"/><path d="M315,-134L223,-125L275,-36Z" fill="rgb(250,135,205)" stroke="rgb(250,135,205)" stroke-width="1.51"/><path d="M36,-11L70,98L131,98Z" fill="rgb(249,131,215)" stroke="rgb(249,131,215)" stroke-width="1.51"/><path d="M1509,435L1393,417L1458,510Z" fill="rgb(249,150,85)" stroke="rgb(249,150,85)" stroke-width="1.51"/><path d="M1509,435L1499,345L1393,417Z" fill="rgb(248,155,80)" stroke="rgb(248,155,80)" stroke-width="1.51"/><path d="M340,935L245,953L608,936Z" fill="rgb(252,138,125)" stroke="rgb(252,138,125)" stroke-width="1.51"/><path d="M181,829L245,953L273,811Z" fill="rgb(253,130,147)" stroke="rgb(253,130,147)" stroke-width="1.51"/><path d="M131,932L245,953L181,829Z" fill="rgb(253,127,153)" stroke="rgb(253,127,153)" stroke-width="1.51"/><path d="M1557,416L1509,435L1563,517Z" fill="rgb(249,150,86)" stroke="rgb(249,150,86)" stroke-width="1.51"/><path d="M125,731L33,837L181,829Z" fill="rgb(253,123,162)" stroke="rgb(253,123,162)" stroke-width="1.51"/><path d="M74,612L63,717L140,634Z" fill="rgb(253,137,154)" stroke="rgb(253,137,154)" stroke-width="1.51"/><path d="M-10,721L63,717L74,612Z" fill="rgb(253,132,162)" stroke="rgb(253,132,162)" stroke-width="1.51"/><path d="M-40,626L74,612L59,573Z" fill="rgb(253,139,158)" stroke="rgb(253,139,158)" stroke-width="1.51"/><path d="M1382,-108L1317,-111L1280,-56Z" fill="rgb(252,123,171)" stroke="rgb(252,123,171)" stroke-width="1.51"/><path d="M1410,707L1488,667L1394,636Z" fill="rgb(251,128,103)" stroke="rgb(251,128,103)" stroke-width="1.51"/><path d="M1357,813L1450,725L1410,707Z" fill="rgb(252,122,109)" stroke="rgb(252,122,109)" stroke-width="1.51"/><path d="M1070,949L1296,945L1163,897Z" fill="rgb(251,130,103)" stroke="rgb(251,130,103)" stroke-width="1.51"/><path d="M1357,813L1505,811L1450,725Z" fill="rgb(252,116,113)" stroke="rgb(252,116,113)" stroke-width="1.51"/><path d="M31,448L-12,514L59,573Z" fill="rgb(252,148,152)" stroke="rgb(252,148,152)" stroke-width="1.51"/><path d="M-71,478L-12,514L31,448Z" fill="rgb(252,150,153)" stroke="rgb(252,150,153)" stroke-width="1.51"/><path d="M-52,335L31,448L28,351Z" fill="rgb(252,155,151)" stroke="rgb(252,155,151)" stroke-width="1.51"/><path d="M-41,160L76,236L86,167Z" fill="rgb(251,140,191)" stroke="rgb(251,140,191)" stroke-width="1.51"/><path d="M1397,51L1409,-18L1304,54Z" fill="rgb(253,124,167)" stroke="rgb(253,124,167)" stroke-width="1.51"/><path d="M1450,-20L1409,-18L1397,51Z" fill="rgb(252,118,174)" stroke="rgb(252,118,174)" stroke-width="1.51"/><path d="M-125,270L-52,335L-15,281Z" fill="rgb(252,148,172)" stroke="rgb(252,148,172)" stroke-width="1.51"/><path d="M146,-32L36,-11L131,98Z" fill="rgb(248,128,221)" stroke="rgb(248,128,221)" stroke-width="1.51"/><path d="M223,-125L158,-105L146,-32Z" fill="rgb(249,130,216)" stroke="rgb(249,130,216)" stroke-width="1.51"/><path d="M1474,229L1496,161L1388,136Z" fill="rgb(253,134,136)" stroke="rgb(253,134,136)" stroke-width="1.51"/><path d="M1586,184L1496,161L1474,229Z" fill="rgb(253,136,132)" stroke="rgb(253,136,132)" stroke-width="1.51"/><path d="M1586,250L1474,229L1499,345Z" fill="rgb(252,143,112)" stroke="rgb(252,143,112)" stroke-width="1.51"/><path d="M1450,725L1488,667L1410,707Z" fill="rgb(252,125,106)" stroke="rgb(252,125,106)" stroke-width="1.51"/><path d="M1509,435L1557,416L1499,345Z" fill="rgb(248,155,80)" stroke="rgb(248,155,80)" stroke-width="1.51"/><path d="M1563,517L1509,435L1458,510Z" fill="rgb(250,147,88)" stroke="rgb(250,147,88)" stroke-width="1.51"/><path d="M-15,281L-52,335L28,351Z" fill="rgb(252,150,165)" stroke="rgb(252,150,165)" stroke-width="1.51"/><path d="M-41,160L86,167L70,98Z" fill="rgb(250,136,202)" stroke="rgb(250,136,202)" stroke-width="1.51"/><path d="M1409,-18L1382,-108L1280,-56Z" fill="rgb(253,121,173)" stroke="rgb(253,121,173)" stroke-width="1.51"/><path d="M1317,-111L1498,-138L1214,-131Z" fill="rgb(252,122,172)" stroke="rgb(252,122,172)" stroke-width="1.51"/><path d="M1450,-20L1382,-108L1409,-18Z" fill="rgb(253,118,175)" stroke="rgb(253,118,175)" stroke-width="1.51"/><path d="M1557,416L1560,341L1499,345Z" fill="rgb(249,152,89)" stroke="rgb(249,152,89)" stroke-width="1.51"/><path d="M1506,56L1388,136L1496,161Z" fill="rgb(253,129,149)" stroke="rgb(253,129,149)" stroke-width="1.51"/><path d="M1506,56L1450,-20L1397,51Z" fill="rgb(253,119,169)" stroke="rgb(253,119,169)" stroke-width="1.51"/><path d="M69,909L131,932L181,829Z" fill="rgb(253,124,160)" stroke="rgb(253,124,160)" stroke-width="1.51"/><path d="M33,837L125,731L63,717Z" fill="rgb(253,124,164)" stroke="rgb(253,124,164)" stroke-width="1.51"/><path d="M1557,416L1586,250L1560,341Z" fill="rgb(250,149,97)" stroke="rgb(250,149,97)" stroke-width="1.51"/><path d="M1550,641L1563,517L1458,510Z" fill="rgb(250,140,94)" stroke="rgb(250,140,94)" stroke-width="1.51"/><path d="M1488,667L1550,641L1458,510Z" fill="rgb(251,135,99)" stroke="rgb(251,135,99)" stroke-width="1.51"/><path d="M1598,763L1550,641L1488,667Z" fill="rgb(252,126,106)" stroke="rgb(252,126,106)" stroke-width="1.51"/><path d="M1296,945L1369,940L1290,829Z" fill="rgb(252,122,109)" stroke="rgb(252,122,109)" stroke-width="1.51"/><path d="M-12,514L-40,626L59,573Z" fill="rgb(253,141,159)" stroke="rgb(253,141,159)" stroke-width="1.51"/><path d="M-106,623L-40,626L-12,514Z" fill="rgb(252,139,161)" stroke="rgb(252,139,161)" stroke-width="1.51"/><path d="M41,-143L36,-11L146,-32Z" fill="rgb(247,124,229)" stroke="rgb(247,124,229)" stroke-width="1.51"/><path d="M-52,335L-71,478L31,448Z" fill="rgb(252,155,148)" stroke="rgb(252,155,148)" stroke-width="1.51"/><path d="M-40,626L-10,721L74,612Z" fill="rgb(253,133,165)" stroke="rgb(253,133,165)" stroke-width="1.51"/><path d="M1579,77L1506,56L1496,161Z" fill="rgb(253,126,154)" stroke="rgb(253,126,154)" stroke-width="1.51"/><path d="M-52,335L-130,434L-71,478Z" fill="rgb(252,156,148)" stroke="rgb(252,156,148)" stroke-width="1.51"/><path d="M-46,39L-41,160L70,98Z" fill="rgb(249,130,216)" stroke="rgb(249,130,216)" stroke-width="1.51"/><path d="M1598,763L1488,667L1450,725Z" fill="rgb(252,123,108)" stroke="rgb(252,123,108)" stroke-width="1.51"/><path d="M-10,721L33,837L63,717Z" fill="rgb(253,122,170)" stroke="rgb(253,122,170)" stroke-width="1.51"/><path d="M1560,341L1586,250L1499,345Z" fill="rgb(251,147,103)" stroke="rgb(251,147,103)" stroke-width="1.51"/><path d="M1563,517L1586,250L1557,416Z" fill="rgb(249,154,82)" stroke="rgb(249,154,82)" stroke-width="1.51"/><path d="M33,837L69,909L181,829Z" fill="rgb(253,122,164)" stroke="rgb(253,122,164)" stroke-width="1.51"/><path d="M1449,901L1505,811L1357,813Z" fill="rgb(252,114,114)" stroke="rgb(252,114,114)" stroke-width="1.51"/><path d="M1369,940L1449,901L1357,813Z" fill="rgb(252,117,112)" stroke="rgb(252,117,112)" stroke-width="1.51"/><path d="M1586,250L1586,184L1474,229Z" fill="rgb(252,138,125)" stroke="rgb(252,138,125)" stroke-width="1.51"/><path d="M36,-11L-46,39L70,98Z" fill="rgb(247,125,227)" stroke="rgb(247,125,227)" stroke-width="1.51"/><path d="M-149,375L-130,434L-52,335Z" fill="rgb(252,156,151)" stroke="rgb(252,156,151)" stroke-width="1.51"/><path d="M-38,-19L-46,39L36,-11Z" fill="rgb(245,121,239)" stroke="rgb(245,121,239)" stroke-width="1.51"/><path d="M-125,732L-35,800L-10,721Z" fill="rgb(252,122,172)" stroke="rgb(252,122,172)" stroke-width="1.51"/><path d="M-10,721L-35,800L33,837Z" fill="rgb(253,118,175)" stroke="rgb(253,118,175)" stroke-width="1.51"/><path d="M-143,569L-106,623L-12,514Z" fill="rgb(253,141,160)" stroke="rgb(253,141,160)" stroke-width="1.51"/><path d="M-125,270L-15,281L-41,160Z" fill="rgb(251,143,185)" stroke="rgb(251,143,185)" stroke-width="1.51"/><path d="M33,837L-71,931L69,909Z" fill="rgb(252,117,174)" stroke="rgb(252,117,174)" stroke-width="1.51"/><path d="M-125,732L-10,721L-40,626Z" fill="rgb(253,128,168)" stroke="rgb(253,128,168)" stroke-width="1.51"/><path d="M-143,569L-12,514L-71,478Z" fill="rgb(252,146,156)" stroke="rgb(252,146,156)" stroke-width="1.51"/><path d="M-126,138L-125,270L-41,160Z" fill="rgb(251,139,196)" stroke="rgb(251,139,196)" stroke-width="1.51"/><path d="M1550,-58L1498,-138L1450,-20Z" fill="rgb(252,116,176)" stroke="rgb(252,116,176)" stroke-width="1.51"/><path d="M1450,-20L1498,-138L1382,-108Z" fill="rgb(252,116,176)" stroke="rgb(252,116,176)" stroke-width="1.51"/><path d="M1586,184L1579,77L1496,161Z" fill="rgb(253,131,144)" stroke="rgb(253,131,144)" stroke-width="1.51"/><path d="M-46,39L-126,138L-41,160Z" fill="rgb(249,131,214)" stroke="rgb(249,131,214)" stroke-width="1.51"/><path d="M-40,-118L-38,-19L36,-11Z" fill="rgb(245,120,239)" stroke="rgb(245,120,239)" stroke-width="1.51"/><path d="M158,-105L41,-143L146,-32Z" fill="rgb(247,127,224)" stroke="rgb(247,127,224)" stroke-width="1.51"/><path d="M223,-125L41,-143L158,-105Z" fill="rgb(248,128,221)" stroke="rgb(248,128,221)" stroke-width="1.51"/><path d="M315,-134L41,-143L223,-125Z" fill="rgb(249,131,215)" stroke="rgb(249,131,215)" stroke-width="1.51"/><path d="M595,-145L41,-143L315,-134Z" fill="rgb(251,137,199)" stroke="rgb(251,137,199)" stroke-width="1.51"/><path d="M795,-151L41,-143L595,-145Z" fill="rgb(252,146,178)" stroke="rgb(252,146,178)" stroke-width="1.51"/><path d="M913,-153L41,-143L795,-151Z" fill="rgb(252,151,165)" stroke="rgb(252,151,165)" stroke-width="1.51"/><path d="M-125,270L-149,375L-52,335Z" fill="rgb(252,151,164)" stroke="rgb(252,151,164)" stroke-width="1.51"/><path d="M-130,434L-143,569L-71,478Z" fill="rgb(252,149,154)" stroke="rgb(252,149,154)" stroke-width="1.51"/><path d="M-149,375L-143,569L-130,434Z" fill="rgb(252,152,152)" stroke="rgb(252,152,152)" stroke-width="1.51"/><path d="M-106,623L-125,732L-40,626Z" fill="rgb(253,131,166)" stroke="rgb(253,131,166)" stroke-width="1.51"/><path d="M-135,67L-126,138L-46,39Z" fill="rgb(248,128,220)" stroke="rgb(248,128,220)" stroke-width="1.51"/><path d="M-125,270L-126,138L-149,375Z" fill="rgb(252,145,179)" stroke="rgb(252,145,179)" stroke-width="1.51"/><path d="M1550,-58L1450,-20L1506,56Z" fill="rgb(252,116,176)" stroke="rgb(252,116,176)" stroke-width="1.51"/><path d="M1382,-108L1498,-138L1317,-111Z" fill="rgb(253,119,175)" stroke="rgb(253,119,175)" stroke-width="1.51"/><path d="M1214,-131L1578,-147L913,-153Z" fill="rgb(252,129,168)" stroke="rgb(252,129,168)" stroke-width="1.51"/><path d="M1579,77L1550,-58L1506,56Z" fill="rgb(253,119,170)" stroke="rgb(253,119,170)" stroke-width="1.51"/><path d="M1599,810L1598,763L1505,811Z" fill="rgb(252,115,114)" stroke="rgb(252,115,114)" stroke-width="1.51"/><path d="M1505,811L1598,763L1450,725Z" fill="rgb(252,118,112)" stroke="rgb(252,118,112)" stroke-width="1.51"/><path d="M1550,641L1598,763L1563,517Z" fill="rgb(251,131,102)" stroke="rgb(251,131,102)" stroke-width="1.51"/><path d="M1563,517L1598,763L1586,250Z" fill="rgb(250,145,90)" stroke="rgb(250,145,90)" stroke-width="1.51"/><path d="M1586,250L1598,763L1586,184Z" fill="rgb(248,155,80)" stroke="rgb(248,155,80)" stroke-width="1.51"/><path d="M-35,800L-71,931L33,837Z" fill="rgb(252,116,176)" stroke="rgb(252,116,176)" stroke-width="1.51"/><path d="M-143,569L-125,732L-106,623Z" fill="rgb(253,133,165)" stroke="rgb(253,133,165)" stroke-width="1.51"/><path d="M1556,925L1599,810L1505,811Z" fill="rgb(252,114,114)" stroke="rgb(252,114,114)" stroke-width="1.51"/><path d="M1598,763L1599,810L1586,184Z" fill="rgb(251,137,97)" stroke="rgb(251,137,97)" stroke-width="1.51"/><path d="M-106,-51L-135,67L-46,39Z" fill="rgb(246,122,235)" stroke="rgb(246,122,235)" stroke-width="1.51"/><path d="M41,-143L-40,-118L36,-11Z" fill="rgb(246,121,237)" stroke="rgb(246,121,237)" stroke-width="1.51"/><path d="M-106,-51L-46,39L-38,-19Z" fill="rgb(245,120,239)" stroke="rgb(245,120,239)" stroke-width="1.51"/><path d="M-126,138L-135,67L-149,375Z" fill="rgb(251,139,195)" stroke="rgb(251,139,195)" stroke-width="1.51"/><path d="M1449,901L1556,925L1505,811Z" fill="rgb(252,114,114)" stroke="rgb(252,114,114)" stroke-width="1.51"/><path d="M1369,940L1556,925L1449,901Z" fill="rgb(252,114,114)" stroke="rgb(252,114,114)" stroke-width="1.51"/><path d="M-40,-118L-106,-51L-38,-19Z" fill="rgb(245,120,239)" stroke="rgb(245,120,239)" stroke-width="1.51"/><path d="M-137,842L-71,931L-35,800Z" fill="rgb(252,116,176)" stroke="rgb(252,116,176)" stroke-width="1.51"/><path d="M69,909L-71,931L131,932Z" fill="rgb(253,119,170)" stroke="rgb(253,119,170)" stroke-width="1.51"/><path d="M131,932L-115,953L245,953Z" fill="rgb(253,122,165)" stroke="rgb(253,122,165)" stroke-width="1.51"/><path d="M1579,77L1578,-147L1550,-58Z" fill="rgb(252,116,176)" stroke="rgb(252,116,176)" stroke-width="1.51"/><path d="M1550,-58L1578,-147L1498,-138Z" fill="rgb(252,116,176)" stroke="rgb(252,116,176)" stroke-width="1.51"/><path d="M1498,-138L1578,-147L1214,-131Z" fill="rgb(252,117,175)" stroke="rgb(252,117,175)" stroke-width="1.51"/><path d="M1586,184L1578,-147L1579,77Z" fill="rgb(253,120,168)" stroke="rgb(253,120,168)" stroke-width="1.51"/><path d="M-125,732L-137,842L-35,800Z" fill="rgb(252,117,175)" stroke="rgb(252,117,175)" stroke-width="1.51"/><path d="M-143,569L-137,842L-125,732Z" fill="rgb(253,126,170)" stroke="rgb(253,126,170)" stroke-width="1.51"/><path d="M-149,375L-137,842L-143,569Z" fill="rgb(252,138,161)" stroke="rgb(252,138,161)" stroke-width="1.51"/><path d="M-137,842L-115,953L-71,931Z" fill="rgb(252,116,176)" stroke="rgb(252,116,176)" stroke-width="1.51"/><path d="M-71,931L-115,953L131,932Z" fill="rgb(252,116,176)" stroke="rgb(252,116,176)" stroke-width="1.51"/><path d="M-40,-118L-149,-134L-106,-51Z" fill="rgb(245,120,239)" stroke="rgb(245,120,239)" stroke-width="1.51"/><path d="M-106,-51L-149,-134L-135,67Z" fill="rgb(245,120,239)" stroke="rgb(245,120,239)" stroke-width="1.51"/><path d="M-135,67L-149,-134L-149,375Z" fill="rgb(249,130,215)" stroke="rgb(249,130,215)" stroke-width="1.51"/><path d="M41,-143L-149,-134L-40,-118Z" fill="rgb(245,120,239)" stroke="rgb(245,120,239)" stroke-width="1.51"/></svg>